<?xml version="1.0" encoding="UTF-8" standalone="no"?>
<svg
   xmlns:dc="http://purl.org/dc/elements/1.1/"
   xmlns:cc="http://creativecommons.org/ns#"
   xmlns:rdf="http://www.w3.org/1999/02/22-rdf-syntax-ns#"
   xmlns:svg="http://www.w3.org/2000/svg"
   xmlns="http://www.w3.org/2000/svg"
   xmlns:sodipodi="http://sodipodi.sourceforge.net/DTD/sodipodi-0.dtd"
   xmlns:inkscape="http://www.inkscape.org/namespaces/inkscape"
   version="1.1"
   x="0"
   y="0"
   width="584.62256"
   height="509.74335"
   viewBox="0 0 584.62256 509.74335"
   id="svg37780"
   sodipodi:docname="webcam-icon-publicdomainvectors.svg"
   inkscape:version="0.92.4 (5da689c313, 2019-01-14)">
  <metadata
     id="metadata37786">
    <rdf:RDF>
      <cc:Work
         rdf:about="">
        <dc:format>image/svg+xml</dc:format>
        <dc:type
           rdf:resource="http://purl.org/dc/dcmitype/StillImage" />
        <dc:title></dc:title>
      </cc:Work>
    </rdf:RDF>
  </metadata>
  <defs
     id="defs37784" />
  <sodipodi:namedview
     pagecolor="#ffffff"
     bordercolor="#666666"
     borderopacity="1"
     objecttolerance="10"
     gridtolerance="10"
     guidetolerance="10"
     inkscape:pageopacity="0"
     inkscape:pageshadow="2"
     inkscape:window-width="746"
     inkscape:window-height="480"
     id="namedview37782"
     showgrid="false"
     fit-margin-top="0"
     fit-margin-left="0"
     fit-margin-right="0"
     fit-margin-bottom="0"
     inkscape:zoom="0.39663866"
     inkscape:cx="292.49978"
     inkscape:cy="212.37686"
     inkscape:window-x="0"
     inkscape:window-y="23"
     inkscape:window-maximized="0"
     inkscape:current-layer="svg37780" />
  <g
     id="Layer_1"
     transform="translate(-2.1701021e-4,-0.13350853)">
    <path
       d="m 559.211,287.256 -72.677,41.224 c 27.066,26.149 27.063,57.881 0,84.031 l 72.808,32.655 8.599,4.365 c 44.904,22.803 -26.743,77.707 -72.485,54.48 l -9.509,-4.828 -93.337,-43.078 C 342.413,467 285.397,467 235.2,456.105 l -82.549,37.598 -16.528,8.394 C 81.003,530.086 8.694,475.517 59.867,449.531 l 11.018,-5.594 70.39,-31.426 c -27.065,-26.152 -27.065,-57.878 0,-84.031 l -75.01,-42.408 -6.398,-3.248 C 13.965,259.513 88.409,206.03 136.799,230.602 l 5.715,2.901 92.686,51.383 c 50.201,-10.894 107.209,-10.892 157.41,0 l 100.365,-55.284 9.902,-5.027 c 46.701,-23.713 113.123,33.843 65.064,58.249 l -8.73,4.432"
       id="path37755"
       inkscape:connector-curvature="0"
       style="fill:#f4f4f2" />
    <path
       d="m 539.733,468.502 h -0.004 c -1.3,24.371 -51.61,52.507 -86.688,34.695 L 350.193,450.972 c -24.036,5.219 -50.671,8.12 -78.704,8.12 -28.033,0 -54.669,-2.903 -78.705,-8.12 L 93.707,501.283 C 52.312,522.302 1.229,496.761 0.026,471.73 H 0.023 v -0.328 c -0.014,-0.437 -0.019,-0.875 0,-1.312 v -18.002 h 11.716 c 1.706,-1.166 3.594,-2.295 5.713,-3.371 L 98.859,407.379 C 93.269,401.976 88.72,396.275 85.345,390.34 h -6.784 v -21.196 c -0.102,-1.254 -0.156,-2.515 -0.156,-3.779 0,-1.27 0.054,-2.531 0.156,-3.785 V 313.039 L 17.452,282.008 C 7.805,277.111 3.49,270.877 3.114,264.317 H 3.098 v -0.309 c -0.015,-0.412 -0.015,-0.823 0,-1.237 v -17.284 l 8.641,-0.051 C 28.426,227.895 65.912,215.33 94.383,229.785 l 29.525,14.994 298.603,-1.748 37.95,-19.27 c 27.169,-13.799 61.016,-0.082 75.104,18.607 l 6.598,-0.038 v 16.273 c 0.044,0.822 0.048,1.638 0,2.451 v 0.106 h -0.011 c -0.526,7.781 -5.508,15.201 -16.626,20.848 L 464.32,313.09 v 47.449 c 0.166,1.599 0.251,3.207 0.251,4.826 0,1.615 -0.085,3.225 -0.251,4.822 v 20.153 h -6.688 c -3.376,5.935 -7.924,11.636 -13.513,17.039 l 81.407,41.338 c 0.083,0.042 0.156,0.089 0.239,0.128 h 13.968 v 17.971 c 0.019,0.483 0.019,0.969 0,1.455 z M 271.489,271.634 c 28.033,0 54.666,2.904 78.704,8.12 l 34.804,-17.672 -224.428,1.313 32.214,16.359 c 24.037,-5.216 50.673,-8.12 78.706,-8.12"
       id="path37757"
       inkscape:connector-curvature="0"
       style="fill:#91afad" />
    <path
       d="m 516.796,267.443 -72.677,-5.41 c 27.065,26.151 27.061,57.883 0,84.031 l 72.808,79.289 8.599,4.365 c 44.904,22.803 -26.745,77.709 -72.485,54.481 l -9.511,-4.828 -93.337,-89.711 c -50.195,10.892 -107.212,10.891 -157.409,0 l -82.549,84.232 -16.528,8.393 C 38.586,510.273 -33.721,455.703 17.452,429.718 l 11.016,-5.595 70.391,-78.059 c -27.064,-26.152 -27.064,-57.878 0,-84.031 l -75.011,4.226 -6.396,-3.249 c -45.904,-23.309 28.54,-76.793 76.931,-52.221 l 5.715,2.901 92.685,4.749 c 50.202,-10.893 107.21,-10.892 157.41,0 l 100.367,-8.65 9.901,-5.028 c 46.7,-23.714 113.123,33.844 65.065,58.249 l -8.73,4.433"
       id="path37759"
       inkscape:connector-curvature="0"
       style="fill:#cee3df" />
    <path
       d="m 516.796,267.443 -72.677,-5.41 c 27.065,26.151 27.061,57.883 0,84.031 l 52.121,56.762 c -31.63,11.285 -70.667,18.127 -113.019,18.578 L 350.193,389.66 c -32.894,7.139 -68.715,9.598 -103.628,7.379 -39.239,-17.053 -63.858,-41.596 -63.858,-68.873 0,-51.512 87.766,-93.267 196.032,-93.267 56.692,0 107.754,11.452 143.545,29.756 l -5.488,2.788"
       id="path37761"
       inkscape:connector-curvature="0"
       style="fill:#bbd5d2" />
    <path
       d="m 271.104,322.074 c 26.9,0 48.708,-14.52 48.708,-32.434 V 188.401 h -24.95 c -7.029,-2.619 -15.131,-4.115 -23.758,-4.115 -8.628,0 -16.729,1.496 -23.758,4.115 h -24.95 V 289.64 c 0,17.914 21.808,32.434 48.708,32.434"
       id="path37763"
       inkscape:connector-curvature="0"
       style="fill:#91afad" />
    <path
       d="m 375.341,165.977 -145.104,145.554 -35.871,-35.76 c -13.862,-6.307 -27.653,-15.768 -40.057,-28.134 -12.405,-12.367 -21.91,-26.13 -28.258,-39.971 L 90.18,171.906 235.285,26.352 c 86.831,-83.803 230.688,52.495 140.056,139.625"
       id="path37765"
       inkscape:connector-curvature="0"
       style="fill:#cee3df" />
    <path
       d="m 274.227,127.344 c 45.648,45.509 53.318,111.827 17.131,148.126 l -57.208,57.385 -42.338,-42.208 c -17.22,-6.579 -33.99,-17.254 -48.631,-31.849 -14.64,-14.596 -25.367,-31.332 -32,-48.532 l -42.338,-42.208 57.208,-57.384 c 36.188,-36.3 102.53,-28.835 148.176,16.67"
       id="path37767"
       inkscape:connector-curvature="0"
       style="fill:#464744" />
    <path
       d="m 217.02,184.731 c 45.648,45.507 53.316,111.825 17.13,148.124 -36.189,36.301 -102.529,28.836 -148.177,-16.67 -45.648,-45.509 -53.318,-111.827 -17.13,-148.127 36.187,-36.3 102.529,-28.834 148.177,16.673"
       id="path37769"
       inkscape:connector-curvature="0"
       style="fill:#171716" />
    <path
       d="m 191.867,209.962 c 28.124,28.039 32.849,68.897 10.553,91.26 -22.295,22.368 -63.169,17.768 -91.294,-10.271 -28.124,-28.037 -32.849,-68.897 -10.553,-91.261 22.295,-22.364 63.169,-17.766 91.294,10.272"
       id="path37771"
       inkscape:connector-curvature="0"
       style="fill:#3899b8" />
    <path
       d="m 191.867,209.962 c 24.058,23.986 30.99,57.352 18.535,80.499 -23.107,12.525 -56.495,5.699 -80.554,-18.287 -24.059,-23.986 -30.991,-57.353 -18.536,-80.498 23.107,-12.526 56.494,-5.699 80.555,18.286"
       id="path37773"
       inkscape:connector-curvature="0"
       style="fill:#2e8aa7" />
    <path
       d="m 189.311,212.526 c 15.203,15.157 17.757,37.245 5.705,49.334 -12.053,12.089 -34.148,9.604 -49.351,-5.552 -15.204,-15.157 -17.758,-37.245 -5.707,-49.335 12.054,-12.09 34.149,-9.604 49.353,5.553"
       id="path37775"
       inkscape:connector-curvature="0"
       style="fill:#3899b8" />
    <path
       d="m 281.388,38.304 v 0 c 9.29,3.636 10.371,12.822 2.406,20.415 l -19.309,18.41 c -7.966,7.595 -22.082,10.834 -31.371,7.199 v -0.001 c -9.29,-3.635 -10.372,-12.821 -2.406,-20.415 l 19.31,-18.41 c 7.966,-7.594 22.08,-10.833 31.37,-7.198"
       id="path37777"
       inkscape:connector-curvature="0"
       style="fill:#464744" />
  </g>
</svg>
